<mxfile host="app.diagrams.net" modified="2024-06-13T05:25:46.953Z" agent="Mozilla/5.0 (Windows NT 10.0; Win64; x64) AppleWebKit/537.36 (KHTML, like Gecko) Chrome/123.0.0.0 Safari/537.36" version="24.5.4" etag="UM0t40VRAb3rEigCeaOI" type="github">
  <diagram name="第 1 页" id="pggE83mVfIBh2ZwydIwk">
    <mxGraphModel>
      <root>
        <mxCell id="0" />
        <mxCell id="1" parent="0" />
      </root>
    </mxGraphModel>
  </diagram>
</mxfile>
